<svg xmlns="http://www.w3.org/2000/svg" xmlns:xlink="http://www.w3.org/1999/xlink" width="180" height="180" viewBox="0 0 180 180">
  <defs>
    <clipPath id="clip-favicon">
      <rect width="180" height="180"/>
    </clipPath>
  </defs>
  <g id="favicon" clip-path="url(#clip-favicon)">
    <g id="logo" transform="translate(-4.886 -5.001)">
      <path id="Path_1" data-name="Path 1" d="M53.305,54.392A12.442,12.442,0,0,1,36.183,36.338,12.442,12.442,0,0,1,53.305,54.392m43.9,46.272a12.221,12.221,0,0,1-17.36-.466,11.991,11.991,0,0,1,.478-17.338,12.177,12.177,0,0,1,17.324.456,12.418,12.418,0,0,1-.442,17.348" transform="translate(27.443 28.033)"/>
      <path id="Path_2" data-name="Path 2" d="M67.656,68.468a14.514,14.514,0,0,1-20.63-.546c-5.752-6.046-5.776-15.184.262-20.914a14.8,14.8,0,0,1,20.368,21.46" transform="translate(37.85 38.105)"/>
      <path id="Path_3" data-name="Path 3" d="M40.612,62.579a9.739,9.739,0,0,1-13.618-.6,9.414,9.414,0,0,1,.37-13.376,9.7,9.7,0,0,1,13.612.1,10.017,10.017,0,0,1-.364,13.874" transform="translate(19.499 40.863)"/>
      <path id="Path_4" data-name="Path 4" d="M59.714,82.722a9.408,9.408,0,0,1-13.362-.342,9.713,9.713,0,0,1,.114-13.634,10.012,10.012,0,0,1,13.864.366,9.713,9.713,0,0,1-.616,13.61" transform="translate(38.73 61.135)"/>
      <g id="Group_1" data-name="Group 1" transform="translate(5.821 5.001)">
        <path id="Path_5" data-name="Path 5" d="M28.485,19.047a4.725,4.725,0,0,1,.426-6.676,4.652,4.652,0,0,1,6.448.16,4.71,4.71,0,0,1,.064,6.7,4.785,4.785,0,0,1-6.938-.182" transform="translate(16.593 1.149)"/>
        <path id="Path_6" data-name="Path 6" d="M12.074,34.424A4.627,4.627,0,0,1,12.25,28a4.732,4.732,0,0,1,6.7-.09,4.806,4.806,0,0,1-.188,6.948,4.714,4.714,0,0,1-6.686-.432" transform="translate(0.155 16.562)"/>
        <path id="Path_7" data-name="Path 7" d="M6.347,25.925a3.775,3.775,0,0,1,.13-5.238,3.823,3.823,0,0,1,5.458-.058,3.868,3.868,0,0,1-.154,5.628,3.826,3.826,0,0,1-5.434-.332" transform="translate(-5.353 9.511)"/>
        <path id="Path_8" data-name="Path 8" d="M21.23,11.413a3.775,3.775,0,0,1,.136-5.252,3.845,3.845,0,0,1,5.45-.056,3.9,3.9,0,0,1-.154,5.65,3.824,3.824,0,0,1-5.432-.342" transform="translate(9.527 -5.001)"/>
        <path id="Path_9" data-name="Path 9" d="M10.138,15.039a4.67,4.67,0,0,1,.16-6.458,4.675,4.675,0,0,1,6.464.194,4.732,4.732,0,0,1,.052,6.686,4.731,4.731,0,0,1-6.676-.422" transform="translate(-1.787 -2.625)"/>
        <path id="Path_10" data-name="Path 10" d="M36.521,30.191A7.373,7.373,0,0,1,36.813,19.8,7.182,7.182,0,1,1,46.7,30.215a7.321,7.321,0,0,1-10.18-.024" transform="translate(23.814 7.705)"/>
        <path id="Path_11" data-name="Path 11" d="M19.151,46.661a7.182,7.182,0,0,1,.274-10.39,7.186,7.186,0,1,1,9.888,10.424,7.1,7.1,0,0,1-10.162-.034" transform="translate(6.355 24.271)"/>
        <path id="Path_12" data-name="Path 12" d="M17.121,26.95a7.362,7.362,0,0,1,.506-10.16,7.191,7.191,0,1,1,9.894,10.434,7.394,7.394,0,0,1-10.4-.274" transform="translate(4.614 4.67)"/>
        <path id="Path_13" data-name="Path 13" d="M26.219,39.682a9.747,9.747,0,0,1,.61-13.614,9.423,9.423,0,0,1,13.384.366A9.7,9.7,0,0,1,40.1,40.058a10.03,10.03,0,0,1-13.88-.376" transform="translate(13.027 13.456)"/>
      </g>
      <g id="Group_2" data-name="Group 2" transform="translate(110.852 112.128)">
        <path id="Path_14" data-name="Path 14" d="M85.215,76.706a4.7,4.7,0,0,0,6.674-.284,4.628,4.628,0,0,0-.034-6.438,4.711,4.711,0,0,0-6.688-.206,4.78,4.78,0,0,0,.048,6.928" transform="translate(-32.033 -48.645)"/>
        <path id="Path_15" data-name="Path 15" d="M69.482,92.79a4.655,4.655,0,0,0,6.45-.034,4.736,4.736,0,0,0,.226-6.7,4.825,4.825,0,0,0-6.95.046,4.727,4.727,0,0,0,.274,6.688" transform="translate(-47.786 -32.527)"/>
        <path id="Path_16" data-name="Path 16" d="M77.005,97.814a3.853,3.853,0,0,0,5.422-5.47,3.909,3.909,0,0,0-5.662.024,3.852,3.852,0,0,0,.24,5.446" transform="translate(-39.987 -25.986)"/>
        <path id="Path_17" data-name="Path 17" d="M91.822,83.253a3.785,3.785,0,0,0,5.252-.044,3.836,3.836,0,0,0,.182-5.446,3.889,3.889,0,0,0-5.66.044,3.842,3.842,0,0,0,.226,5.446" transform="translate(-25.166 -40.566)"/>
        <path id="Path_18" data-name="Path 18" d="M88.716,95.036a4.567,4.567,0,1,0,6.424-6.492,4.578,4.578,0,1,0-6.424,6.492" transform="translate(-28.54 -30.078)"/>
        <path id="Path_19" data-name="Path 19" d="M76.751,71.008a7.381,7.381,0,0,0,10.388-.056,7.182,7.182,0,1,0-10.206-10.1,7.317,7.317,0,0,0-.182,10.158" transform="translate(-40.95 -58.564)"/>
        <path id="Path_20" data-name="Path 20" d="M59.905,88.038a7.193,7.193,0,0,0,10.412-.058,7.407,7.407,0,0,0-.068-10.4,7.33,7.33,0,0,0-10.162.294,7.136,7.136,0,0,0-.182,10.162" transform="translate(-57.869 -41.454)"/>
        <path id="Path_21" data-name="Path 21" d="M79.595,90.475a7.325,7.325,0,0,0,10.15-.294,7.1,7.1,0,0,0,.194-10.162,7.178,7.178,0,0,0-10.4.056,7.376,7.376,0,0,0,.056,10.4" transform="translate(-38.316 -39.312)"/>
        <path id="Path_22" data-name="Path 22" d="M69.334,83.456a9.745,9.745,0,0,0,13.646-.32,9.429,9.429,0,0,0-.092-13.382,9.7,9.7,0,0,0-13.624-.172,10.011,10.011,0,0,0,.07,13.874" transform="translate(-49.232 -50.257)"/>
      </g>
      <path id="Path_23" data-name="Path 23" d="M61.6,42.376a9.735,9.735,0,0,0-.068-13.634A9.421,9.421,0,0,0,48.147,28.6a9.706,9.706,0,0,0-.41,13.612,10.019,10.019,0,0,0,13.862.168" transform="translate(40.26 20.877)"/>
      <path id="Path_24" data-name="Path 24" d="M81.005,62.239a9.434,9.434,0,0,0,.182-13.376,9.748,9.748,0,0,0-13.646-.41,10.036,10.036,0,0,0-.158,13.876,9.709,9.709,0,0,0,13.622-.09" transform="translate(59.791 40.862)"/>
      <path id="Path_25" data-name="Path 25" d="M81.006,53.413A12.445,12.445,0,0,1,99.072,36.295,12.446,12.446,0,0,1,81.006,53.413M34.735,97.291a12.182,12.182,0,0,1,.472-17.326,11.959,11.959,0,0,1,17.326.446,12.187,12.187,0,0,1-.45,17.336,12.407,12.407,0,0,1-17.348-.456" transform="translate(26.46 27.441)"/>
      <g id="Group_3" data-name="Group 3" transform="translate(111.809 5.921)">
        <path id="Path_26" data-name="Path 26" d="M85.58,28.591a4.733,4.733,0,0,1,6.676.42A4.734,4.734,0,0,1,85.4,35.529a4.791,4.791,0,0,1,.182-6.938" transform="translate(-32.695 16.485)"/>
        <path id="Path_27" data-name="Path 27" d="M70.2,12.194a4.652,4.652,0,0,1,6.448.16,4.724,4.724,0,0,1,.068,6.7,4.793,4.793,0,0,1-6.938-.184,4.722,4.722,0,0,1,.422-6.676" transform="translate(-48.11 0.052)"/>
        <path id="Path_28" data-name="Path 28" d="M77.826,6.453a3.85,3.85,0,0,1,5.3,5.582,3.883,3.883,0,0,1-5.638-.148,3.837,3.837,0,0,1,.342-5.434" transform="translate(-40.181 -5.461)"/>
        <path id="Path_29" data-name="Path 29" d="M92.338,21.328a3.8,3.8,0,0,1,5.252.136,3.864,3.864,0,0,1,.056,5.458A3.908,3.908,0,0,1,92,26.774a3.852,3.852,0,0,1,.342-5.446" transform="translate(-25.669 9.419)"/>
        <path id="Path_30" data-name="Path 30" d="M89.492,10.25a4.553,4.553,0,1,1,6.266,6.608,4.741,4.741,0,0,1-6.7.068,4.733,4.733,0,0,1,.432-6.676" transform="translate(-28.815 -1.897)"/>
        <path id="Path_31" data-name="Path 31" d="M76.971,36.62a7.407,7.407,0,0,1,10.4.3A7.185,7.185,0,1,1,76.935,46.79a7.343,7.343,0,0,1,.036-10.17" transform="translate(-41.788 23.709)"/>
        <path id="Path_32" data-name="Path 32" d="M60.5,19.259a7.191,7.191,0,0,1,10.4.274,7.189,7.189,0,1,1-10.434,9.888A7.117,7.117,0,0,1,60.5,19.259" transform="translate(-58.348 6.247)"/>
        <path id="Path_33" data-name="Path 33" d="M80.2,17.229a7.377,7.377,0,0,1,10.186.514,7.19,7.19,0,1,1-10.436,9.888,7.419,7.419,0,0,1,.25-10.4" transform="translate(-38.752 4.505)"/>
        <path id="Path_34" data-name="Path 34" d="M69.8,26.331a9.76,9.76,0,0,1,13.624.606,9.432,9.432,0,0,1-.366,13.374,9.71,9.71,0,0,1-13.624-.1A10.052,10.052,0,0,1,69.8,26.331" transform="translate(-49.866 12.923)"/>
      </g>
      <g id="Group_4" data-name="Group 4" transform="translate(4.886 110.942)">
        <path id="Path_35" data-name="Path 35" d="M27.919,85.313A4.72,4.72,0,0,0,28.2,92a4.637,4.637,0,0,0,6.454-.034,4.713,4.713,0,0,0,.21-6.688,4.8,4.8,0,0,0-6.944.036" transform="translate(16.891 -32.131)"/>
        <path id="Path_36" data-name="Path 36" d="M11.827,69.6a4.642,4.642,0,0,0,.044,6.438,4.722,4.722,0,0,0,6.7.214,4.818,4.818,0,0,0-.04-6.948,4.733,4.733,0,0,0-6.7.3" transform="translate(0.779 -47.886)"/>
        <path id="Path_37" data-name="Path 37" d="M5.93,77.108a3.793,3.793,0,0,0,.024,5.25,3.837,3.837,0,0,0,5.456.172,3.857,3.857,0,1,0-5.48-5.422" transform="translate(-4.886 -40.081)"/>
        <path id="Path_38" data-name="Path 38" d="M20.509,91.942a3.769,3.769,0,0,0,.028,5.24,3.848,3.848,0,1,0,5.41-5.466,3.807,3.807,0,0,0-5.438.226" transform="translate(9.691 -25.262)"/>
        <path id="Path_39" data-name="Path 39" d="M9.489,88.842a4.659,4.659,0,0,0,.04,6.458,4.658,4.658,0,0,0,6.452-.056,4.769,4.769,0,0,0,.206-6.7,4.761,4.761,0,0,0-6.7.3" transform="translate(-1.564 -28.634)"/>
        <path id="Path_40" data-name="Path 40" d="M36.156,76.849a7.4,7.4,0,0,0,.058,10.4,7.18,7.18,0,0,0,10.4-.046,7.1,7.1,0,0,0-.3-10.16,7.322,7.322,0,0,0-10.162-.194" transform="translate(24.275 -41.051)"/>
        <path id="Path_41" data-name="Path 41" d="M19.132,60.017a7.188,7.188,0,0,0,.056,10.4A7.19,7.19,0,1,0,29.3,60.2a7.125,7.125,0,0,0-10.17-.182" transform="translate(7.162 -57.971)"/>
        <path id="Path_42" data-name="Path 42" d="M16.7,79.689a7.343,7.343,0,0,0,.292,10.172A7.193,7.193,0,1,0,27.1,79.633a7.411,7.411,0,0,0-10.4.056" transform="translate(5.019 -38.413)"/>
        <path id="Path_43" data-name="Path 43" d="M26.031,69.437a9.742,9.742,0,0,0,.33,13.634,9.4,9.4,0,0,0,13.374-.08,9.715,9.715,0,0,0,.188-13.624,10.057,10.057,0,0,0-13.892.07" transform="translate(13.634 -49.325)"/>
      </g>
    </g>
  </g>
</svg>
